<?xml version="1.0" encoding="UTF-8" standalone="no"?>
<svg
   xmlns:dc="http://purl.org/dc/elements/1.1/"
   xmlns:cc="http://creativecommons.org/ns#"
   xmlns:rdf="http://www.w3.org/1999/02/22-rdf-syntax-ns#"
   xmlns:svg="http://www.w3.org/2000/svg"
   xmlns="http://www.w3.org/2000/svg"
   xmlns:sodipodi="http://sodipodi.sourceforge.net/DTD/sodipodi-0.dtd"
   xmlns:inkscape="http://www.inkscape.org/namespaces/inkscape"
   width="467.33478"
   height="419.55893"
   viewBox="0 0 467.33478 419.55893"
   version="1.1"
   preserveAspectRatio="xMidYMid"
   id="svg6"
   sodipodi:docname="docker-node.svg"
   inkscape:version="0.92.3 (2405546, 2018-03-11)">
  <metadata
     id="metadata12">
    <rdf:RDF>
      <cc:Work
         rdf:about="">
        <dc:format>image/svg+xml</dc:format>
        <dc:type
           rdf:resource="http://purl.org/dc/dcmitype/StillImage" />
        <dc:title />
      </cc:Work>
    </rdf:RDF>
  </metadata>
  <defs
     id="defs10" />
  <sodipodi:namedview
     pagecolor="#212026"
     bordercolor="#666666"
     borderopacity="1"
     objecttolerance="10"
     gridtolerance="10"
     guidetolerance="10"
     inkscape:pageopacity="0"
     inkscape:pageshadow="2"
     inkscape:window-width="3840"
     inkscape:window-height="2066"
     id="namedview8"
     showgrid="false"
     fit-margin-top="0"
     fit-margin-left="0"
     fit-margin-right="0"
     fit-margin-bottom="0"
     inkscape:zoom="0.816609"
     inkscape:cx="-50.337628"
     inkscape:cy="196.25284"
     inkscape:window-x="-11"
     inkscape:window-y="-11"
     inkscape:window-maximized="1"
     inkscape:current-layer="g914" />
  <g
     id="g914"
     transform="translate(143.72593,78.806094)">
    <g
       transform="translate(15.919492,7.347458)"
       id="g4">
      <path
         style="fill:#539e43"
         inkscape:connector-curvature="0"
         id="path2"
         d="m 128,288.46377 c -3.97516,0 -7.6853,-1.06004 -11.13044,-2.91511 L 81.623188,264.61284 c -5.300208,-2.91512 -2.650103,-3.97516 -1.060042,-4.50518 7.15528,-2.38509 8.480331,-2.91511 15.900623,-7.15528 0.795029,-0.53002 1.855071,-0.26501 2.650103,0.26501 l 27.031058,16.16563 c 1.06004,0.53002 2.38509,0.53002 3.18012,0 l 105.73913,-61.21739 c 1.06004,-0.53002 1.59006,-1.59006 1.59006,-2.91511 V 83.080747 c 0,-1.325054 -0.53002,-2.385094 -1.59006,-2.915115 L 129.32505,19.213251 c -1.06004,-0.530021 -2.38509,-0.530021 -3.18012,0 L 20.405795,80.165632 c -1.06004,0.530021 -1.59006,1.855072 -1.59006,2.915115 V 205.25052 c 0,1.06004 0.53002,2.38509 1.59006,2.91511 l 28.88613,16.69566 c 15.635611,7.9503 25.440995,-1.32506 25.440995,-10.60042 V 93.681159 c 0,-1.590061 1.325051,-3.180123 3.180123,-3.180123 h 13.515529 c 1.590062,0 3.180123,1.325051 3.180123,3.180123 V 214.26087 c 0,20.93582 -11.395444,33.12629 -31.271221,33.12629 -6.095238,0 -10.865424,0 -24.380953,-6.62525 L 11.130435,224.86129 C 4.2401658,220.88613 0,213.46584 0,205.51553 V 83.345756 C 0,75.395447 4.2401658,67.975155 11.130435,64.000001 L 116.86956,2.7826075 c 6.62526,-3.71014334 15.63562,-3.71014334 22.26088,0 L 244.86956,64.000001 C 251.75983,67.975155 256,75.395447 256,83.345756 V 205.51553 c 0,7.95031 -4.24017,15.3706 -11.13044,19.34576 l -105.73912,61.21739 c -3.44514,1.59006 -7.4203,2.38509 -11.13044,2.38509 z m 32.59627,-84.00828 c -46.37681,0 -55.91718,-21.20083 -55.91718,-39.22154 0,-1.59006 1.32505,-3.18012 3.18012,-3.18012 h 13.78054 c 1.59006,0 2.91511,1.06004 2.91511,2.6501 2.12009,14.04555 8.21533,20.93582 36.30642,20.93582 22.26087,0 31.80125,-5.03519 31.80125,-16.96066 0,-6.89027 -2.65011,-11.92547 -37.36647,-15.3706 -28.88612,-2.91512 -46.90682,-9.27536 -46.90682,-32.33126 0,-21.465843 18.0207,-34.18634 48.23188,-34.18634 33.92132,0 50.61697,11.660457 52.73706,37.10145 0,0.79503 -0.26501,1.59006 -0.79503,2.38509 -0.53002,0.53002 -1.32506,1.06004 -2.12009,1.06004 h -13.78053 c -1.32506,0 -2.65011,-1.06004 -2.91512,-2.38509 -3.18012,-14.57557 -11.39544,-19.34576 -33.12629,-19.34576 -24.38096,0 -27.29607,8.48034 -27.29607,14.84058 0,7.68531 3.44514,10.0704 36.30642,14.31057 32.59627,4.24016 47.96687,10.3354 47.96687,33.12629 -0.26501,23.32091 -19.34575,36.57143 -53.00207,36.57143 z" />
    </g>
    <g
       style="fill:#000000"
       transform="matrix(0.20708377,0,0,0.20708377,-143.72593,-78.806094)"
       id="g883">
      <g
         style="fill:#000000"
         id="g895">
        <path
           style="fill:#000000"
           id="path838"
           d="m 707.494,193.557 c -1.938,-1.539 -20.029,-15.199 -58.181,-15.199 -10.074,0.044 -20.127,0.908 -30.061,2.584 -7.384,-50.612 -49.228,-75.288 -51.104,-76.395 l -10.245,-5.908 -6.738,9.723 c -8.438,13.061 -14.598,27.459 -18.214,42.582 -6.831,28.891 -2.677,56.027 11.999,79.226 -17.722,9.876 -46.151,12.307 -51.904,12.522 H 22.367 c -12.294,0.017 -22.27,9.952 -22.337,22.245 -0.549,41.234 6.437,82.222 20.614,120.946 16.214,42.521 40.336,73.842 71.719,93.01 35.167,21.537 92.302,33.844 157.067,33.844 29.258,0.092 58.461,-2.556 87.226,-7.907 39.986,-7.342 78.463,-21.318 113.839,-41.352 29.149,-16.88 55.383,-38.354 77.688,-63.596 37.29,-42.213 59.505,-89.226 76.026,-131.007 2.215,0 4.431,0 6.584,0 40.828,0 65.935,-16.338 79.78,-30.029 9.201,-8.732 16.384,-19.369 21.045,-31.167 l 2.923,-8.553 z"
           inkscape:connector-curvature="0" />
        <path
           style="fill:#000000"
           id="path840"
           d="m 65.995,228.909 h 63.073 c 3.042,0 5.507,-2.466 5.507,-5.507 v 0 -56.182 c 0.017,-3.042 -2.435,-5.521 -5.476,-5.538 -0.01,0 -0.021,0 -0.031,0 H 65.995 c -3.042,0 -5.507,2.466 -5.507,5.507 0,0.01 0,0.021 0,0.031 v 56.181 c 0,3.042 2.465,5.508 5.507,5.508 v 0"
           inkscape:connector-curvature="0" />
        <path
           style="fill:#000000"
           id="path842"
           d="m 152.913,228.909 h 63.073 c 3.042,0 5.507,-2.466 5.507,-5.507 v 0 -56.182 c 0.017,-3.042 -2.435,-5.521 -5.477,-5.538 -0.01,0 -0.021,0 -0.031,0 h -63.073 c -3.059,0 -5.538,2.479 -5.538,5.538 v 56.181 c 0.018,3.047 2.492,5.508 5.539,5.508"
           inkscape:connector-curvature="0" />
        <path
           style="fill:#000000"
           id="path844"
           d="m 241.153,228.909 h 63.073 c 3.042,0 5.507,-2.466 5.507,-5.507 v 0 -56.182 c 0.017,-3.042 -2.435,-5.521 -5.477,-5.538 -0.01,0 -0.021,0 -0.031,0 h -63.073 c -3.042,0 -5.507,2.466 -5.507,5.507 0,0.01 0,0.021 0,0.031 v 56.181 c 10e-4,3.042 2.467,5.508 5.508,5.508 v 0"
           inkscape:connector-curvature="0" />
        <path
           style="fill:#000000"
           id="path846"
           d="m 328.348,228.909 h 63.073 c 3.047,0 5.521,-2.46 5.538,-5.507 V 167.22 c 0,-3.059 -2.479,-5.538 -5.538,-5.538 v 0 h -63.073 c -3.042,0 -5.507,2.466 -5.507,5.507 0,0.01 0,0.021 0,0.031 v 56.181 c 0,3.042 2.466,5.508 5.507,5.508 v 0"
           inkscape:connector-curvature="0" />
        <path
           style="fill:#000000"
           id="path848"
           d="m 152.913,148.083 h 63.073 c 3.046,-0.017 5.507,-2.492 5.507,-5.538 V 86.364 c 0,-3.042 -2.466,-5.507 -5.507,-5.507 v 0 h -63.073 c -3.046,0 -5.521,2.46 -5.538,5.507 v 56.181 c 0.017,3.052 2.486,5.521 5.538,5.538"
           inkscape:connector-curvature="0" />
        <path
           style="fill:#000000"
           id="path850"
           d="m 241.153,148.083 h 63.073 c 3.046,-0.017 5.507,-2.492 5.507,-5.538 V 86.364 c 0,-3.042 -2.466,-5.507 -5.507,-5.507 v 0 h -63.073 c -3.042,0 -5.507,2.466 -5.507,5.507 v 0 56.181 c 0,3.046 2.461,5.521 5.507,5.538"
           inkscape:connector-curvature="0" />
        <path
           style="fill:#000000"
           id="path852"
           d="m 328.348,148.083 h 63.073 c 3.052,-0.017 5.521,-2.486 5.538,-5.538 V 86.364 c -0.017,-3.047 -2.491,-5.507 -5.538,-5.507 h -63.073 c -3.042,0 -5.507,2.466 -5.507,5.507 v 0 56.181 c 0,3.046 2.461,5.521 5.507,5.538"
           inkscape:connector-curvature="0" />
        <path
           style="fill:#000000"
           id="path854"
           d="m 328.348,67.227 h 63.073 c 3.047,0 5.521,-2.461 5.538,-5.507 V 5.507 C 396.942,2.46 394.468,0 391.421,0 h -63.073 c -3.042,0 -5.507,2.465 -5.507,5.507 v 0 56.212 c 0,3.042 2.466,5.508 5.507,5.508"
           inkscape:connector-curvature="0" />
        <path
           style="fill:#000000"
           id="path856"
           d="m 416.312,228.909 h 63.073 c 3.047,0 5.521,-2.46 5.538,-5.507 V 167.22 c 0,-3.059 -2.479,-5.538 -5.538,-5.538 v 0 h -63.073 c -3.041,0 -5.507,2.466 -5.507,5.507 0,0.01 0,0.021 0,0.031 v 56.181 c 0,3.042 2.466,5.508 5.507,5.508"
           inkscape:connector-curvature="0" />
      </g>
    </g>
    <rect
       y="-6.8377366"
       x="-23.981804"
       height="316.14578"
       width="328.3916"
       id="rect897"
       style="fill:#000000;fill-opacity:0;stroke:#000000;stroke-width:6.55908537;stroke-linejoin:round;stroke-miterlimit:4;stroke-dasharray:none;stroke-opacity:1" />
  </g>
</svg>
