<?xml version="1.0" encoding="UTF-8" standalone="no"?>
<!-- Created with Inkscape (http://www.inkscape.org/) -->

<svg
   xmlns:dc="http://purl.org/dc/elements/1.1/"
   xmlns:cc="http://creativecommons.org/ns#"
   xmlns:rdf="http://www.w3.org/1999/02/22-rdf-syntax-ns#"
   xmlns:svg="http://www.w3.org/2000/svg"
   xmlns="http://www.w3.org/2000/svg"
   xmlns:sodipodi="http://sodipodi.sourceforge.net/DTD/sodipodi-0.dtd"
   xmlns:inkscape="http://www.inkscape.org/namespaces/inkscape"
   version="1.1"
   id="svg10"
   xml:space="preserve"
   width="181.22122"
   height="145.69685"
   viewBox="0 0 181.22122 145.69685"
   sodipodi:docname="leanmind.svg"
   inkscape:version="0.92.3 (2405546, 2018-03-11)"
   inkscape:export-filename="/home/carlosble/Documents/LeanMind_logo_with_slogan2.png"
   inkscape:export-xdpi="96"
   inkscape:export-ydpi="96"
   style="enable-background:new"><metadata
     id="metadata16"><rdf:RDF><cc:Work
         rdf:about=""><dc:format>image/svg+xml</dc:format><dc:type
           rdf:resource="http://purl.org/dc/dcmitype/StillImage" /><dc:title></dc:title></cc:Work></rdf:RDF></metadata><defs
     id="defs14"><clipPath
       clipPathUnits="userSpaceOnUse"
       id="clipPath26"><path
         d="m 239.595,386.201 -24.026,-50.005 c -0.309,-0.641 0.158,-1.384 0.87,-1.384 v 0 h 30.228 c 0.37,0 0.709,0.213 0.87,0.547 v 0 l 9.525,19.798 c 0.133,0.275 0.127,0.595 -0.013,0.865 v 0 l -15.727,30.207 c -0.18,0.347 -0.518,0.519 -0.856,0.519 v 0 c -0.348,0 -0.696,-0.183 -0.871,-0.547"
         id="path24"
         inkscape:connector-curvature="0" /></clipPath><linearGradient
       x1="0"
       y1="0"
       x2="1"
       y2="0"
       gradientUnits="userSpaceOnUse"
       gradientTransform="matrix(10.09291,20.870085,20.870085,-10.09291,233.80363,340.5936)"
       spreadMethod="pad"
       id="linearGradient36"><stop
         style="stop-opacity:1;stop-color:#a7a9ac"
         offset="0"
         id="stop32" /><stop
         style="stop-opacity:1;stop-color:#58595b"
         offset="1"
         id="stop34" /></linearGradient><clipPath
       clipPathUnits="userSpaceOnUse"
       id="clipPath46"><path
         d="m 325.538,386.229 -15.727,-30.207 c -0.141,-0.27 -0.146,-0.59 -0.014,-0.865 v 0 l 9.526,-19.798 c 0.161,-0.334 0.499,-0.547 0.87,-0.547 v 0 h 30.228 c 0.711,0 1.178,0.743 0.871,1.384 v 0 l -24.027,50.005 c -0.175,0.364 -0.523,0.547 -0.871,0.547 v 0 c -0.337,0.001 -0.675,-0.172 -0.856,-0.519"
         id="path44"
         inkscape:connector-curvature="0" /></clipPath><linearGradient
       x1="0"
       y1="0"
       x2="1"
       y2="0"
       gradientUnits="userSpaceOnUse"
       gradientTransform="matrix(-9.2375784,20.356886,20.356886,9.2375784,332.43658,341.50681)"
       spreadMethod="pad"
       id="linearGradient56"><stop
         style="stop-opacity:1;stop-color:#a7a9ac"
         offset="0"
         id="stop52" /><stop
         style="stop-opacity:1;stop-color:#58595b"
         offset="1"
         id="stop54" /></linearGradient><clipPath
       clipPathUnits="userSpaceOnUse"
       id="clipPath66"><path
         d="M 0,566.93 H 566.93 V 0 H 0 Z"
         id="path64"
         inkscape:connector-curvature="0" /></clipPath><clipPath
       clipPathUnits="userSpaceOnUse"
       id="clipPath78"><path
         d="m 239.595,200.36 -24.026,-50.005 c -0.309,-0.641 0.158,-1.384 0.87,-1.384 v 0 h 30.228 c 0.37,0 0.709,0.213 0.87,0.547 v 0 l 9.525,19.798 c 0.133,0.275 0.127,0.595 -0.013,0.865 v 0 l -15.727,30.207 c -0.18,0.347 -0.518,0.519 -0.856,0.519 v 0 c -0.348,0 -0.696,-0.183 -0.871,-0.547"
         id="path76"
         inkscape:connector-curvature="0" /></clipPath><linearGradient
       x1="0"
       y1="0"
       x2="1"
       y2="0"
       gradientUnits="userSpaceOnUse"
       gradientTransform="matrix(10.09291,20.870085,20.870085,-10.09291,233.80363,154.75246)"
       spreadMethod="pad"
       id="linearGradient88"><stop
         style="stop-opacity:1;stop-color:#3194a2"
         offset="0"
         id="stop84" /><stop
         style="stop-opacity:1;stop-color:#03707f"
         offset="1"
         id="stop86" /></linearGradient><clipPath
       clipPathUnits="userSpaceOnUse"
       id="clipPath98"><path
         d="m 325.538,200.388 -15.727,-30.207 c -0.141,-0.27 -0.146,-0.59 -0.014,-0.865 v 0 l 9.526,-19.798 c 0.161,-0.334 0.499,-0.547 0.87,-0.547 v 0 h 30.228 c 0.711,0 1.178,0.743 0.871,1.384 v 0 l -24.027,50.005 c -0.175,0.364 -0.523,0.547 -0.871,0.547 v 0 c -0.337,10e-4 -0.675,-0.172 -0.856,-0.519"
         id="path96"
         inkscape:connector-curvature="0" /></clipPath><linearGradient
       x1="0"
       y1="0"
       x2="1"
       y2="0"
       gradientUnits="userSpaceOnUse"
       gradientTransform="matrix(-9.2375784,20.356886,20.356886,9.2375784,332.43658,155.66563)"
       spreadMethod="pad"
       id="linearGradient108"><stop
         style="stop-opacity:1;stop-color:#3194a2"
         offset="0"
         id="stop104" /><stop
         style="stop-opacity:1;stop-color:#03707f"
         offset="1"
         id="stop106" /></linearGradient><clipPath
       clipPathUnits="userSpaceOnUse"
       id="clipPath118"><path
         d="M 0,566.93 H 566.93 V 0 H 0 Z"
         id="path116"
         inkscape:connector-curvature="0" /></clipPath></defs><sodipodi:namedview
     pagecolor="#ffffff"
     bordercolor="#666666"
     borderopacity="1"
     objecttolerance="10"
     gridtolerance="10"
     guidetolerance="10"
     inkscape:pageopacity="0"
     inkscape:pageshadow="2"
     inkscape:window-width="3840"
     inkscape:window-height="2066"
     id="namedview12"
     showgrid="false"
     inkscape:pagecheckerboard="false"
     inkscape:zoom="1.964428"
     inkscape:cx="49.461888"
     inkscape:cy="81.305608"
     inkscape:window-x="-11"
     inkscape:window-y="-11"
     inkscape:window-maximized="1"
     inkscape:current-layer="g18"
     fit-margin-top="0"
     fit-margin-left="0"
     fit-margin-right="0"
     fit-margin-bottom="0" /><g
     id="g18"
     inkscape:groupmode="layer"
     inkscape:label="LeanMind"
     transform="matrix(1.3333333,0,0,-1.3333333,-295.93497,469.49652)"
     style="display:inline"><g
   id="g72"
   transform="translate(6.4792003,106.9068)"><g
     id="g74"
     clip-path="url(#clipPath78)"><g
       id="g80"><g
         id="g82"><path
           d="m 239.595,200.36 -24.026,-50.005 c -0.309,-0.641 0.158,-1.384 0.87,-1.384 v 0 h 30.228 c 0.37,0 0.709,0.213 0.87,0.547 v 0 l 9.525,19.798 c 0.133,0.275 0.127,0.595 -0.013,0.865 v 0 l -15.727,30.207 c -0.18,0.347 -0.518,0.519 -0.856,0.519 v 0 c -0.348,0 -0.696,-0.183 -0.871,-0.547"
           style="fill:url(#linearGradient88);stroke:none"
           id="path90"
           inkscape:connector-curvature="0" /></g></g></g></g><g
   id="g92"
   transform="translate(6.4792003,106.9068)"><g
     id="g94"
     clip-path="url(#clipPath98)"><g
       id="g100"><g
         id="g102"><path
           d="m 325.538,200.388 -15.727,-30.207 c -0.141,-0.27 -0.146,-0.59 -0.014,-0.865 v 0 l 9.526,-19.798 c 0.161,-0.334 0.499,-0.547 0.87,-0.547 v 0 h 30.228 c 0.711,0 1.178,0.743 0.871,1.384 v 0 l -24.027,50.005 c -0.175,0.364 -0.523,0.547 -0.871,0.547 v 0 c -0.337,10e-4 -0.675,-0.172 -0.856,-0.519"
           style="fill:url(#linearGradient108);stroke:none"
           id="path110"
           inkscape:connector-curvature="0" /></g></g></g></g><g
   id="g112"
   transform="translate(6.4792003,106.9068)"><g
     id="g114"
     clip-path="url(#clipPath118)"><g
       id="g120"
       transform="translate(330.126,215.7956)"><path
         d="m 0,0 h -32.688 c -0.591,0 -1.137,-0.312 -1.437,-0.82 l -11.481,-19.443 c -0.661,-1.12 -2.293,-1.086 -2.907,0.061 l -26.086,48.741 c -0.29,0.543 -0.855,0.881 -1.471,0.881 h -34.776 c -1.297,0 -2.098,-1.416 -1.429,-2.528 l 63.748,-105.937 c 0.645,-1.071 2.195,-1.078 2.85,-0.014 L 1.421,-2.543 C 2.105,-1.431 1.305,0 0,0"
         style="fill:#39b3c2;fill-opacity:1;fill-rule:nonzero;stroke:none"
         id="path122"
         inkscape:connector-curvature="0" /></g></g></g>

</g></svg>